<?xml version="1.0" encoding="UTF-8" standalone="no"?>
<!DOCTYPE svg PUBLIC "-//W3C//DTD SVG 1.1//EN"
 "http://www.w3.org/Graphics/SVG/1.1/DTD/svg11.dtd">
<!-- Generated by graphviz version 2.42.4 (0)
 -->
<!-- Title: G Pages: 1 -->
<svg width="2418pt" height="165pt"
 viewBox="0.00 0.00 2418.00 165.00" xmlns="http://www.w3.org/2000/svg" xmlns:xlink="http://www.w3.org/1999/xlink">
<g id="graph0" class="graph" transform="scale(1 1) rotate(0) translate(4 161)">
<title>G</title>
<polygon fill="white" stroke="transparent" points="-4,4 -4,-161 2414,-161 2414,4 -4,4"/>
<!-- a -->
<g id="node1" class="node">
<title>a</title>
<polygon fill="none" stroke="black" points="187,-145 0,-145 0,-109 187,-109 187,-145"/>
<text text-anchor="middle" x="93.5" y="-123.9" font-family="DejaVu Sans" font-size="12.00">Account direct observations</text>
</g>
<!-- ad -->
<g id="node3" class="node">
<title>ad</title>
<polygon fill="none" stroke="black" points="511,-114 341,-114 341,-78 511,-78 511,-114"/>
<text text-anchor="middle" x="426" y="-92.9" font-family="DejaVu Sans" font-size="12.00">Canonical fact admission</text>
</g>
<!-- a&#45;&gt;ad -->
<g id="edge1" class="edge">
<title>a&#45;&gt;ad</title>
<path fill="none" stroke="black" d="M187,-118.32C231.92,-114.11 285.79,-109.06 330.92,-104.82"/>
<polygon fill="black" stroke="black" points="331.37,-108.3 341,-103.88 330.72,-101.33 331.37,-108.3"/>
<text text-anchor="middle" x="264" y="-118" font-family="DejaVu Sans" font-size="10.00">evidence + bindings</text>
</g>
<!-- p -->
<g id="node2" class="node">
<title>p</title>
<polygon fill="none" stroke="black" points="179,-84 8,-84 8,-48 179,-48 179,-84"/>
<text text-anchor="middle" x="93.5" y="-62.9" font-family="DejaVu Sans" font-size="12.00">Product / industry reports</text>
</g>
<!-- p&#45;&gt;ad -->
<g id="edge2" class="edge">
<title>p&#45;&gt;ad</title>
<path fill="none" stroke="black" d="M179.21,-73.09C219.97,-76.56 269.53,-80.87 314,-85 319.42,-85.5 324.99,-86.03 330.62,-86.57"/>
<polygon fill="black" stroke="black" points="330.48,-90.07 340.77,-87.54 331.15,-83.1 330.48,-90.07"/>
<text text-anchor="middle" x="264" y="-88" font-family="DejaVu Sans" font-size="10.00">attributed reports</text>
</g>
<!-- pr -->
<g id="node4" class="node">
<title>pr</title>
<polygon fill="none" stroke="black" points="889,-149 647,-149 647,-113 889,-113 889,-149"/>
<text text-anchor="middle" x="768" y="-127.9" font-family="DejaVu Sans" font-size="12.00">Sample + numerator + denominator</text>
</g>
<!-- ad&#45;&gt;pr -->
<g id="edge4" class="edge">
<title>ad&#45;&gt;pr</title>
<path fill="none" stroke="black" d="M511.04,-104.65C548.91,-108.55 594.5,-113.24 636.65,-117.58"/>
<polygon fill="black" stroke="black" points="636.4,-121.07 646.71,-118.62 637.12,-114.11 636.4,-121.07"/>
<text text-anchor="middle" x="579" y="-118" font-family="DejaVu Sans" font-size="10.00">research records</text>
</g>
<!-- cl -->
<g id="node5" class="node">
<title>cl</title>
<polygon fill="none" stroke="black" points="1290.5,-89 1086.5,-89 1086.5,-53 1290.5,-53 1290.5,-89"/>
<text text-anchor="middle" x="1188.5" y="-67.9" font-family="DejaVu Sans" font-size="12.00">Complete account claim group</text>
</g>
<!-- ad&#45;&gt;cl -->
<g id="edge3" class="edge">
<title>ad&#45;&gt;cl</title>
<path fill="none" stroke="black" d="M511.29,-93.23C648.99,-88.7 922.21,-79.72 1075.86,-74.67"/>
<polygon fill="black" stroke="black" points="1076.38,-78.15 1086.26,-74.33 1076.15,-71.16 1076.38,-78.15"/>
<text text-anchor="middle" x="768" y="-91" font-family="DejaVu Sans" font-size="10.00">account facts</text>
</g>
<!-- co -->
<g id="node6" class="node">
<title>co</title>
<polygon fill="none" stroke="black" points="1292,-157 1085,-157 1085,-119 1292,-119 1292,-157"/>
<text text-anchor="middle" x="1188.5" y="-141.4" font-family="DejaVu Sans" font-size="12.00">Research prior</text>
<text text-anchor="middle" x="1188.5" y="-128.4" font-family="DejaVu Sans" font-size="12.00">subject stays product / industry</text>
</g>
<!-- pr&#45;&gt;co -->
<g id="edge5" class="edge">
<title>pr&#45;&gt;co</title>
<path fill="none" stroke="black" d="M889.21,-133.01C947.53,-133.99 1017.2,-135.15 1074.53,-136.11"/>
<polygon fill="black" stroke="black" points="1074.66,-139.61 1084.72,-136.28 1074.78,-132.61 1074.66,-139.61"/>
<text text-anchor="middle" x="987" y="-138" font-family="DejaVu Sans" font-size="10.00">sample&#45;bound measurement</text>
</g>
<!-- join -->
<g id="node7" class="node">
<title>join</title>
<polygon fill="none" stroke="black" points="1655,-132 1508,-132 1508,-96 1655,-96 1655,-132"/>
<text text-anchor="middle" x="1581.5" y="-110.9" font-family="DejaVu Sans" font-size="12.00">Declared context join</text>
</g>
<!-- cl&#45;&gt;join -->
<g id="edge7" class="edge">
<title>cl&#45;&gt;join</title>
<path fill="none" stroke="black" d="M1290.68,-82.09C1346.76,-88.24 1417.74,-96.03 1481,-103 1486.45,-103.6 1492.07,-104.22 1497.74,-104.85"/>
<polygon fill="black" stroke="black" points="1497.63,-108.35 1507.95,-105.97 1498.4,-101.4 1497.63,-108.35"/>
<text text-anchor="middle" x="1400" y="-106" font-family="DejaVu Sans" font-size="10.00">explicit membership/product link</text>
</g>
<!-- si -->
<g id="node8" class="node">
<title>si</title>
<polygon fill="none" stroke="black" points="2014,-78 1811,-78 1811,-42 2014,-42 2014,-78"/>
<text text-anchor="middle" x="1912.5" y="-56.9" font-family="DejaVu Sans" font-size="12.00">Signal / opportunity evaluation</text>
</g>
<!-- cl&#45;&gt;si -->
<g id="edge9" class="edge">
<title>cl&#45;&gt;si</title>
<path fill="none" stroke="black" d="M1290.65,-69.46C1424.97,-67.41 1661.38,-63.81 1800.49,-61.69"/>
<polygon fill="black" stroke="black" points="1800.8,-65.19 1810.74,-61.54 1800.69,-58.19 1800.8,-65.19"/>
<text text-anchor="middle" x="1581.5" y="-69" font-family="DejaVu Sans" font-size="10.00">account condition inputs</text>
</g>
<!-- copy -->
<g id="node9" class="node">
<title>copy</title>
<polygon fill="none" stroke="black" points="2410,-36 2254,-36 2254,0 2410,0 2410,-36"/>
<text text-anchor="middle" x="2332" y="-14.9" font-family="DejaVu Sans" font-size="12.00">Eligible factual clauses</text>
</g>
<!-- cl&#45;&gt;copy -->
<g id="edge10" class="edge">
<title>cl&#45;&gt;copy</title>
<path fill="none" stroke="black" d="M1290.58,-62.2C1300.18,-61.43 1309.77,-60.68 1319,-60 1537.5,-43.84 1592.1,-38.27 1811,-29 1913.15,-24.67 1938.78,-26.17 2041,-24 2109.04,-22.56 2186.05,-20.97 2243.61,-19.78"/>
<polygon fill="black" stroke="black" points="2243.83,-23.28 2253.76,-19.58 2243.69,-16.28 2243.83,-23.28"/>
<text text-anchor="middle" x="1733" y="-38" font-family="DejaVu Sans" font-size="10.00">outward proof</text>
</g>
<!-- co&#45;&gt;join -->
<g id="edge6" class="edge">
<title>co&#45;&gt;join</title>
<path fill="none" stroke="black" d="M1292.23,-131.69C1356.29,-127.76 1437.65,-122.77 1497.59,-119.09"/>
<polygon fill="black" stroke="black" points="1498,-122.57 1507.77,-118.46 1497.57,-115.58 1498,-122.57"/>
<text text-anchor="middle" x="1400" y="-132" font-family="DejaVu Sans" font-size="10.00">prior</text>
</g>
<!-- join&#45;&gt;si -->
<g id="edge8" class="edge">
<title>join&#45;&gt;si</title>
<path fill="none" stroke="black" d="M1655.11,-102.08C1697.77,-95.08 1752.58,-86.08 1800.56,-78.21"/>
<polygon fill="black" stroke="black" points="1801.39,-81.62 1810.69,-76.55 1800.26,-74.71 1801.39,-81.62"/>
<text text-anchor="middle" x="1733" y="-99" font-family="DejaVu Sans" font-size="10.00">internal context only</text>
</g>
<!-- si&#45;&gt;copy -->
<g id="edge11" class="edge">
<title>si&#45;&gt;copy</title>
<path fill="none" stroke="black" d="M2014.03,-49.89C2084.15,-42.83 2176.77,-33.52 2243.77,-26.77"/>
<polygon fill="black" stroke="black" points="2244.28,-30.24 2253.88,-25.76 2243.58,-23.28 2244.28,-30.24"/>
<text text-anchor="middle" x="2134" y="-50" font-family="DejaVu Sans" font-size="10.00">approved question/template selection</text>
</g>
</g>
</svg>
