<?xml version="1.0" encoding="UTF-8" standalone="no"?>
<!DOCTYPE svg PUBLIC "-//W3C//DTD SVG 1.1//EN"
 "http://www.w3.org/Graphics/SVG/1.1/DTD/svg11.dtd">
<!-- Generated by graphviz version 2.42.4 (0)
 -->
<!-- Title: G Pages: 1 -->
<svg width="1186pt" height="250pt"
 viewBox="0.00 0.00 1186.00 250.00" xmlns="http://www.w3.org/2000/svg" xmlns:xlink="http://www.w3.org/1999/xlink">
<g id="graph0" class="graph" transform="scale(1 1) rotate(0) translate(4 246)">
<title>G</title>
<polygon fill="white" stroke="transparent" points="-4,4 -4,-246 1182,-246 1182,4 -4,4"/>
<!-- ExperimentDefinition -->
<g id="node1" class="node">
<title>ExperimentDefinition</title>
<polygon fill="#e6edf3" stroke="transparent" points="1.5,-219 1.5,-241 228.5,-241 228.5,-219 1.5,-219"/>
<text text-anchor="start" x="50" y="-228.2" font-family="DejaVu Sans" font-weight="bold" font-size="11.00">ExperimentDefinition</text>
<text text-anchor="start" x="47" y="-206.8" font-family="DejaVu Sans" font-size="9.00">PROPOSED PRODUCT RECORD</text>
<text text-anchor="start" x="6.5" y="-185.2" font-family="DejaVu Sans" font-size="11.00">experiment_id</text>
<text text-anchor="start" x="6.5" y="-163.2" font-family="DejaVu Sans" font-size="11.00">hypothesis</text>
<text text-anchor="start" x="6.5" y="-141.2" font-family="DejaVu Sans" font-size="11.00">eligible_population</text>
<text text-anchor="start" x="6.5" y="-119.2" font-family="DejaVu Sans" font-size="11.00">randomization_or_observational_design</text>
<text text-anchor="start" x="6.5" y="-97.2" font-family="DejaVu Sans" font-size="11.00">treatment_refs</text>
<text text-anchor="start" x="6.5" y="-75.2" font-family="DejaVu Sans" font-size="11.00">holdout_policy</text>
<text text-anchor="start" x="6.5" y="-53.2" font-family="DejaVu Sans" font-size="11.00">outcome_definition</text>
<text text-anchor="start" x="6.5" y="-31.2" font-family="DejaVu Sans" font-size="11.00">maturity_window</text>
<text text-anchor="start" x="6.5" y="-9.2" font-family="DejaVu Sans" font-size="11.00">stopping_rule</text>
<polygon fill="none" stroke="black" points="0,0 0,-242 229,-242 229,0 0,0"/>
</g>
<!-- ExperimentAssignment -->
<g id="node2" class="node">
<title>ExperimentAssignment</title>
<polygon fill="#e6edf3" stroke="transparent" points="273,-197 273,-219 425,-219 425,-197 273,-197"/>
<text text-anchor="start" x="278" y="-206.2" font-family="DejaVu Sans" font-weight="bold" font-size="11.00">ExperimentAssignment</text>
<text text-anchor="start" x="281" y="-184.8" font-family="DejaVu Sans" font-size="9.00">PROPOSED PRODUCT RECORD</text>
<text text-anchor="start" x="278" y="-163.2" font-family="DejaVu Sans" font-size="11.00">assignment_id</text>
<text text-anchor="start" x="278" y="-141.2" font-family="DejaVu Sans" font-size="11.00">experiment_ref</text>
<text text-anchor="start" x="278" y="-119.2" font-family="DejaVu Sans" font-size="11.00">unit_ref</text>
<text text-anchor="start" x="278" y="-97.2" font-family="DejaVu Sans" font-size="11.00">assigned_variant</text>
<text text-anchor="start" x="278" y="-75.2" font-family="DejaVu Sans" font-size="11.00">assignment_rule_version</text>
<text text-anchor="start" x="278" y="-53.2" font-family="DejaVu Sans" font-size="11.00">assigned_at</text>
<text text-anchor="start" x="278" y="-31.2" font-family="DejaVu Sans" font-size="11.00">exposure_links</text>
<polygon fill="none" stroke="black" points="272,-22 272,-220 426,-220 426,-22 272,-22"/>
</g>
<!-- ExperimentDefinition&#45;&gt;ExperimentAssignment -->
<!-- QualityAssessment -->
<g id="node3" class="node">
<title>QualityAssessment</title>
<polygon fill="#e6edf3" stroke="transparent" points="470,-208 470,-230 616,-230 616,-208 470,-208"/>
<text text-anchor="start" x="483.5" y="-217.2" font-family="DejaVu Sans" font-weight="bold" font-size="11.00">QualityAssessment</text>
<text text-anchor="start" x="475" y="-195.8" font-family="DejaVu Sans" font-size="9.00">PROPOSED PRODUCT RECORD</text>
<text text-anchor="start" x="475" y="-174.2" font-family="DejaVu Sans" font-size="11.00">assessment_id</text>
<text text-anchor="start" x="475" y="-152.2" font-family="DejaVu Sans" font-size="11.00">evaluated_release_refs</text>
<text text-anchor="start" x="475" y="-130.2" font-family="DejaVu Sans" font-size="11.00">gold_set_ref</text>
<text text-anchor="start" x="475" y="-108.2" font-family="DejaVu Sans" font-size="11.00">eligible_sample</text>
<text text-anchor="start" x="475" y="-86.2" font-family="DejaVu Sans" font-size="11.00">observed_metrics</text>
<text text-anchor="start" x="475" y="-64.2" font-family="DejaVu Sans" font-size="11.00">errors</text>
<text text-anchor="start" x="475" y="-42.2" font-family="DejaVu Sans" font-size="11.00">uncertainty</text>
<text text-anchor="start" x="475" y="-20.2" font-family="DejaVu Sans" font-size="11.00">limitations</text>
<polygon fill="none" stroke="black" points="469,-11 469,-231 617,-231 617,-11 469,-11"/>
</g>
<!-- ExperimentAssignment&#45;&gt;QualityAssessment -->
<!-- PromotionProposal -->
<g id="node4" class="node">
<title>PromotionProposal</title>
<polygon fill="#e6edf3" stroke="transparent" points="661,-197 661,-219 807,-219 807,-197 661,-197"/>
<text text-anchor="start" x="675" y="-206.2" font-family="DejaVu Sans" font-weight="bold" font-size="11.00">PromotionProposal</text>
<text text-anchor="start" x="666" y="-184.8" font-family="DejaVu Sans" font-size="9.00">PROPOSED PRODUCT RECORD</text>
<text text-anchor="start" x="666" y="-163.2" font-family="DejaVu Sans" font-size="11.00">proposal_id</text>
<text text-anchor="start" x="666" y="-141.2" font-family="DejaVu Sans" font-size="11.00">target_definition_ref</text>
<text text-anchor="start" x="666" y="-119.2" font-family="DejaVu Sans" font-size="11.00">assessed_release_ref</text>
<text text-anchor="start" x="666" y="-97.2" font-family="DejaVu Sans" font-size="11.00">quality_assessment_refs</text>
<text text-anchor="start" x="666" y="-75.2" font-family="DejaVu Sans" font-size="11.00">intended_change</text>
<text text-anchor="start" x="666" y="-53.2" font-family="DejaVu Sans" font-size="11.00">reasons</text>
<text text-anchor="start" x="666" y="-31.2" font-family="DejaVu Sans" font-size="11.00">review_requirements</text>
<polygon fill="none" stroke="black" points="660,-22 660,-220 808,-220 808,-22 660,-22"/>
</g>
<!-- QualityAssessment&#45;&gt;PromotionProposal -->
<!-- WorkspaceView -->
<g id="node5" class="node">
<title>WorkspaceView</title>
<polygon fill="#e6edf3" stroke="transparent" points="852,-197 852,-219 998,-219 998,-197 852,-197"/>
<text text-anchor="start" x="875.5" y="-206.2" font-family="DejaVu Sans" font-weight="bold" font-size="11.00">WorkspaceView</text>
<text text-anchor="start" x="857" y="-184.8" font-family="DejaVu Sans" font-size="9.00">PROPOSED PRODUCT RECORD</text>
<text text-anchor="start" x="857" y="-163.2" font-family="DejaVu Sans" font-size="11.00">view_id</text>
<text text-anchor="start" x="857" y="-141.2" font-family="DejaVu Sans" font-size="11.00">tenant_id</text>
<text text-anchor="start" x="857" y="-119.2" font-family="DejaVu Sans" font-size="11.00">view_kind</text>
<text text-anchor="start" x="857" y="-97.2" font-family="DejaVu Sans" font-size="11.00">permitted_record_refs</text>
<text text-anchor="start" x="857" y="-75.2" font-family="DejaVu Sans" font-size="11.00">as_of</text>
<text text-anchor="start" x="857" y="-53.2" font-family="DejaVu Sans" font-size="11.00">redaction_policy_ref</text>
<text text-anchor="start" x="857" y="-31.2" font-family="DejaVu Sans" font-size="11.00">completeness_notes</text>
<polygon fill="none" stroke="black" points="851,-22 851,-220 999,-220 999,-22 851,-22"/>
</g>
<!-- PromotionProposal&#45;&gt;WorkspaceView -->
<!-- Common -->
<g id="node6" class="node">
<title>Common</title>
<polygon fill="#e6edf3" stroke="transparent" points="1043,-120 1043,-142 1177,-142 1177,-120 1043,-120"/>
<text text-anchor="start" x="1083" y="-129.2" font-family="DejaVu Sans" font-weight="bold" font-size="11.00">Common</text>
<text text-anchor="start" x="1048" y="-107.8" font-family="DejaVu Sans" font-size="9.00">DRAFT COMMON ENVELOPE</text>
<polygon fill="none" stroke="black" points="1042,-99 1042,-143 1178,-143 1178,-99 1042,-99"/>
</g>
<!-- WorkspaceView&#45;&gt;Common -->
</g>
</svg>
