<?xml version="1.0" encoding="UTF-8" standalone="no"?>
<!DOCTYPE svg PUBLIC "-//W3C//DTD SVG 1.1//EN"
 "http://www.w3.org/Graphics/SVG/1.1/DTD/svg11.dtd">
<!-- Generated by graphviz version 2.42.4 (0)
 -->
<!-- Title: G Pages: 1 -->
<svg width="1116pt" height="294pt"
 viewBox="0.00 0.00 1116.00 294.00" xmlns="http://www.w3.org/2000/svg" xmlns:xlink="http://www.w3.org/1999/xlink">
<g id="graph0" class="graph" transform="scale(1 1) rotate(0) translate(4 290)">
<title>G</title>
<polygon fill="white" stroke="transparent" points="-4,4 -4,-290 1112,-290 1112,4 -4,4"/>
<!-- TargetResult -->
<g id="node1" class="node">
<title>TargetResult</title>
<polygon fill="#e6edf3" stroke="transparent" points="1.5,-186 1.5,-208 140.5,-208 140.5,-186 1.5,-186"/>
<text text-anchor="start" x="31.5" y="-195.2" font-family="DejaVu Sans" font-weight="bold" font-size="11.00">TargetResult</text>
<text text-anchor="start" x="6.5" y="-173.8" font-family="DejaVu Sans" font-size="9.00">REFERENCE CONTRACT v4.2</text>
<text text-anchor="start" x="6.5" y="-152.2" font-family="DejaVu Sans" font-size="11.00">completed_at</text>
<text text-anchor="start" x="6.5" y="-130.2" font-family="DejaVu Sans" font-size="11.00">reason</text>
<text text-anchor="start" x="6.5" y="-108.2" font-family="DejaVu Sans" font-size="11.00">status</text>
<text text-anchor="start" x="6.5" y="-86.2" font-family="DejaVu Sans" font-size="11.00">subject_id</text>
<polygon fill="none" stroke="black" points="0,-77 0,-209 141,-209 141,-77 0,-77"/>
</g>
<!-- TaxonomyTerm -->
<g id="node2" class="node">
<title>TaxonomyTerm</title>
<polygon fill="#e6edf3" stroke="transparent" points="185.5,-197 185.5,-219 324.5,-219 324.5,-197 185.5,-197"/>
<text text-anchor="start" x="209" y="-206.2" font-family="DejaVu Sans" font-weight="bold" font-size="11.00">TaxonomyTerm</text>
<text text-anchor="start" x="190.5" y="-184.8" font-family="DejaVu Sans" font-size="9.00">REFERENCE CONTRACT v4.2</text>
<text text-anchor="start" x="190.5" y="-163.2" font-family="DejaVu Sans" font-size="11.00">label</text>
<text text-anchor="start" x="190.5" y="-141.2" font-family="DejaVu Sans" font-size="11.00">parent_id</text>
<text text-anchor="start" x="190.5" y="-119.2" font-family="DejaVu Sans" font-size="11.00">scheme_id</text>
<text text-anchor="start" x="190.5" y="-97.2" font-family="DejaVu Sans" font-size="11.00">scheme_version</text>
<text text-anchor="start" x="190.5" y="-75.2" font-family="DejaVu Sans" font-size="11.00">term_id</text>
<polygon fill="none" stroke="black" points="184,-66 184,-220 325,-220 325,-66 184,-66"/>
</g>
<!-- TargetResult&#45;&gt;TaxonomyTerm -->
<!-- TechnologyReportValue -->
<g id="node3" class="node">
<title>TechnologyReportValue</title>
<polygon fill="#e6edf3" stroke="transparent" points="369.5,-186 369.5,-208 524.5,-208 524.5,-186 369.5,-186"/>
<text text-anchor="start" x="374.5" y="-195.2" font-family="DejaVu Sans" font-weight="bold" font-size="11.00">TechnologyReportValue</text>
<text text-anchor="start" x="382.5" y="-173.8" font-family="DejaVu Sans" font-size="9.00">REFERENCE CONTRACT v4.2</text>
<text text-anchor="start" x="374.5" y="-152.2" font-family="DejaVu Sans" font-size="11.00">product_id</text>
<text text-anchor="start" x="374.5" y="-130.2" font-family="DejaVu Sans" font-size="11.00">provider</text>
<text text-anchor="start" x="374.5" y="-108.2" font-family="DejaVu Sans" font-size="11.00">provider_detected_at</text>
<text text-anchor="start" x="374.5" y="-86.2" font-family="DejaVu Sans" font-size="11.00">reported_version</text>
<polygon fill="none" stroke="black" points="368,-77 368,-209 525,-209 525,-77 368,-77"/>
</g>
<!-- TaxonomyTerm&#45;&gt;TechnologyReportValue -->
<!-- TechnologyValue -->
<g id="node4" class="node">
<title>TechnologyValue</title>
<polygon fill="#e6edf3" stroke="transparent" points="569.5,-208 569.5,-230 708.5,-230 708.5,-208 569.5,-208"/>
<text text-anchor="start" x="587" y="-217.2" font-family="DejaVu Sans" font-weight="bold" font-size="11.00">TechnologyValue</text>
<text text-anchor="start" x="574.5" y="-195.8" font-family="DejaVu Sans" font-size="9.00">REFERENCE CONTRACT v4.2</text>
<text text-anchor="start" x="574.5" y="-174.2" font-family="DejaVu Sans" font-size="11.00">deployment_claim</text>
<text text-anchor="start" x="574.5" y="-152.2" font-family="DejaVu Sans" font-size="11.00">fingerprint_id</text>
<text text-anchor="start" x="574.5" y="-130.2" font-family="DejaVu Sans" font-size="11.00">matched_value</text>
<text text-anchor="start" x="574.5" y="-108.2" font-family="DejaVu Sans" font-size="11.00">product_id</text>
<text text-anchor="start" x="574.5" y="-86.2" font-family="DejaVu Sans" font-size="11.00">surface</text>
<text text-anchor="start" x="574.5" y="-64.2" font-family="DejaVu Sans" font-size="11.00">version</text>
<polygon fill="none" stroke="black" points="568,-55 568,-231 709,-231 709,-55 568,-55"/>
</g>
<!-- TechnologyReportValue&#45;&gt;TechnologyValue -->
<!-- TemplateDefinition -->
<g id="node5" class="node">
<title>TemplateDefinition</title>
<polygon fill="#e6edf3" stroke="transparent" points="753.5,-263 753.5,-285 892.5,-285 892.5,-263 753.5,-263"/>
<text text-anchor="start" x="764.5" y="-272.2" font-family="DejaVu Sans" font-weight="bold" font-size="11.00">TemplateDefinition</text>
<text text-anchor="start" x="758.5" y="-250.8" font-family="DejaVu Sans" font-size="9.00">REFERENCE CONTRACT v4.2</text>
<text text-anchor="start" x="758.5" y="-229.2" font-family="DejaVu Sans" font-size="11.00">allowed_natures</text>
<text text-anchor="start" x="758.5" y="-207.2" font-family="DejaVu Sans" font-size="11.00">authority</text>
<text text-anchor="start" x="758.5" y="-185.2" font-family="DejaVu Sans" font-size="11.00">maturity_required</text>
<text text-anchor="start" x="758.5" y="-163.2" font-family="DejaVu Sans" font-size="11.00">mode</text>
<text text-anchor="start" x="758.5" y="-141.2" font-family="DejaVu Sans" font-size="11.00">offered_rung</text>
<text text-anchor="start" x="758.5" y="-119.2" font-family="DejaVu Sans" font-size="11.00">question</text>
<text text-anchor="start" x="758.5" y="-97.2" font-family="DejaVu Sans" font-size="11.00">renderer</text>
<text text-anchor="start" x="758.5" y="-75.2" font-family="DejaVu Sans" font-size="11.00">required_predicate</text>
<text text-anchor="start" x="758.5" y="-53.2" font-family="DejaVu Sans" font-size="11.00">review_ref</text>
<text text-anchor="start" x="758.5" y="-31.2" font-family="DejaVu Sans" font-size="11.00">template_id</text>
<text text-anchor="start" x="758.5" y="-9.2" font-family="DejaVu Sans" font-size="11.00">version</text>
<polygon fill="none" stroke="black" points="752,0 752,-286 893,-286 893,0 752,0"/>
</g>
<!-- TechnologyValue&#45;&gt;TemplateDefinition -->
<!-- ThemeClassificationValue -->
<g id="node6" class="node">
<title>ThemeClassificationValue</title>
<polygon fill="#e6edf3" stroke="transparent" points="937,-197 937,-219 1107,-219 1107,-197 937,-197"/>
<text text-anchor="start" x="942" y="-206.2" font-family="DejaVu Sans" font-weight="bold" font-size="11.00">ThemeClassificationValue</text>
<text text-anchor="start" x="957.5" y="-184.8" font-family="DejaVu Sans" font-size="9.00">REFERENCE CONTRACT v4.2</text>
<text text-anchor="start" x="942" y="-163.2" font-family="DejaVu Sans" font-size="11.00">record_key</text>
<text text-anchor="start" x="942" y="-141.2" font-family="DejaVu Sans" font-size="11.00">sentiment</text>
<text text-anchor="start" x="942" y="-119.2" font-family="DejaVu Sans" font-size="11.00">stance</text>
<text text-anchor="start" x="942" y="-97.2" font-family="DejaVu Sans" font-size="11.00">support_locator_ids</text>
<text text-anchor="start" x="942" y="-75.2" font-family="DejaVu Sans" font-size="11.00">theme_id</text>
<polygon fill="none" stroke="black" points="936,-66 936,-220 1108,-220 1108,-66 936,-66"/>
</g>
<!-- TemplateDefinition&#45;&gt;ThemeClassificationValue -->
</g>
</svg>
