<?xml version="1.0" encoding="UTF-8" standalone="no"?>
<!DOCTYPE svg PUBLIC "-//W3C//DTD SVG 1.1//EN"
 "http://www.w3.org/Graphics/SVG/1.1/DTD/svg11.dtd">
<!-- Generated by graphviz version 2.42.4 (0)
 -->
<!-- Title: G Pages: 1 -->
<svg width="1112pt" height="382pt"
 viewBox="0.00 0.00 1112.00 382.00" xmlns="http://www.w3.org/2000/svg" xmlns:xlink="http://www.w3.org/1999/xlink">
<g id="graph0" class="graph" transform="scale(1 1) rotate(0) translate(4 378)">
<title>G</title>
<polygon fill="white" stroke="transparent" points="-4,4 -4,-378 1108,-378 1108,4 -4,4"/>
<!-- CallEventValue -->
<g id="node1" class="node">
<title>CallEventValue</title>
<polygon fill="#e6edf3" stroke="transparent" points="1.5,-252 1.5,-274 140.5,-274 140.5,-252 1.5,-252"/>
<text text-anchor="start" x="24" y="-261.2" font-family="DejaVu Sans" font-weight="bold" font-size="11.00">CallEventValue</text>
<text text-anchor="start" x="6.5" y="-239.8" font-family="DejaVu Sans" font-size="9.00">REFERENCE CONTRACT v4.2</text>
<text text-anchor="start" x="6.5" y="-218.2" font-family="DejaVu Sans" font-size="11.00">call_key</text>
<text text-anchor="start" x="6.5" y="-196.2" font-family="DejaVu Sans" font-size="11.00">callback_of</text>
<text text-anchor="start" x="6.5" y="-174.2" font-family="DejaVu Sans" font-size="11.00">direction</text>
<text text-anchor="start" x="6.5" y="-152.2" font-family="DejaVu Sans" font-size="11.00">duration_seconds</text>
<text text-anchor="start" x="6.5" y="-130.2" font-family="DejaVu Sans" font-size="11.00">started_at</text>
<text text-anchor="start" x="6.5" y="-108.2" font-family="DejaVu Sans" font-size="11.00">status</text>
<polygon fill="none" stroke="black" points="0,-99 0,-275 141,-275 141,-99 0,-99"/>
</g>
<!-- CandidateRecord -->
<g id="node2" class="node">
<title>CandidateRecord</title>
<polygon fill="#e6edf3" stroke="transparent" points="185.5,-274 185.5,-296 324.5,-296 324.5,-274 185.5,-274"/>
<text text-anchor="start" x="202" y="-283.2" font-family="DejaVu Sans" font-weight="bold" font-size="11.00">CandidateRecord</text>
<text text-anchor="start" x="190.5" y="-261.8" font-family="DejaVu Sans" font-size="9.00">REFERENCE CONTRACT v4.2</text>
<text text-anchor="start" x="190.5" y="-240.2" font-family="DejaVu Sans" font-size="11.00">artifact_id</text>
<text text-anchor="start" x="190.5" y="-218.2" font-family="DejaVu Sans" font-size="11.00">attempt_id</text>
<text text-anchor="start" x="190.5" y="-196.2" font-family="DejaVu Sans" font-size="11.00">candidate_id</text>
<text text-anchor="start" x="190.5" y="-174.2" font-family="DejaVu Sans" font-size="11.00">production_eligible</text>
<text text-anchor="start" x="190.5" y="-152.2" font-family="DejaVu Sans" font-size="11.00">proposed_predicate_id</text>
<text text-anchor="start" x="190.5" y="-130.2" font-family="DejaVu Sans" font-size="11.00">proposed_value</text>
<text text-anchor="start" x="190.5" y="-108.2" font-family="DejaVu Sans" font-size="11.00">reason</text>
<text text-anchor="start" x="190.5" y="-86.2" font-family="DejaVu Sans" font-size="11.00">tenant_id</text>
<polygon fill="none" stroke="black" points="184,-77 184,-297 325,-297 325,-77 184,-77"/>
</g>
<!-- CallEventValue&#45;&gt;CandidateRecord -->
<!-- CapabilityProfile -->
<g id="node3" class="node">
<title>CapabilityProfile</title>
<polygon fill="#e6edf3" stroke="transparent" points="369.5,-318 369.5,-340 524.5,-340 524.5,-318 369.5,-318"/>
<text text-anchor="start" x="395.5" y="-327.2" font-family="DejaVu Sans" font-weight="bold" font-size="11.00">CapabilityProfile</text>
<text text-anchor="start" x="382.5" y="-305.8" font-family="DejaVu Sans" font-size="9.00">REFERENCE CONTRACT v4.2</text>
<text text-anchor="start" x="374.5" y="-284.2" font-family="DejaVu Sans" font-size="11.00">capture_source_ids</text>
<text text-anchor="start" x="374.5" y="-262.2" font-family="DejaVu Sans" font-size="11.00">delivery_enabled</text>
<text text-anchor="start" x="374.5" y="-240.2" font-family="DejaVu Sans" font-size="11.00">execute_function_ids</text>
<text text-anchor="start" x="374.5" y="-218.2" font-family="DejaVu Sans" font-size="11.00">export_enabled</text>
<text text-anchor="start" x="374.5" y="-196.2" font-family="DejaVu Sans" font-size="11.00">fact_predicate_ids</text>
<text text-anchor="start" x="374.5" y="-174.2" font-family="DejaVu Sans" font-size="11.00">product_boundary</text>
<text text-anchor="start" x="374.5" y="-152.2" font-family="DejaVu Sans" font-size="11.00">production_enabled</text>
<text text-anchor="start" x="374.5" y="-130.2" font-family="DejaVu Sans" font-size="11.00">profile_id</text>
<text text-anchor="start" x="374.5" y="-108.2" font-family="DejaVu Sans" font-size="11.00">research_context_enabled</text>
<text text-anchor="start" x="374.5" y="-86.2" font-family="DejaVu Sans" font-size="11.00">signal_ids</text>
<text text-anchor="start" x="374.5" y="-64.2" font-family="DejaVu Sans" font-size="11.00">template_ids</text>
<text text-anchor="start" x="374.5" y="-42.2" font-family="DejaVu Sans" font-size="11.00">version</text>
<polygon fill="none" stroke="black" points="368,-33 368,-341 525,-341 525,-33 368,-33"/>
</g>
<!-- CandidateRecord&#45;&gt;CapabilityProfile -->
<!-- CaseStudyOutcomeValue -->
<g id="node4" class="node">
<title>CaseStudyOutcomeValue</title>
<polygon fill="#e6edf3" stroke="transparent" points="569,-351 569,-373 735,-373 735,-351 569,-351"/>
<text text-anchor="start" x="574" y="-360.2" font-family="DejaVu Sans" font-weight="bold" font-size="11.00">CaseStudyOutcomeValue</text>
<text text-anchor="start" x="587.5" y="-338.8" font-family="DejaVu Sans" font-size="9.00">REFERENCE CONTRACT v4.2</text>
<text text-anchor="start" x="574" y="-317.2" font-family="DejaVu Sans" font-size="11.00">attribution</text>
<text text-anchor="start" x="574" y="-295.2" font-family="DejaVu Sans" font-size="11.00">baseline_value</text>
<text text-anchor="start" x="574" y="-273.2" font-family="DejaVu Sans" font-size="11.00">case_id</text>
<text text-anchor="start" x="574" y="-251.2" font-family="DejaVu Sans" font-size="11.00">comparison_kind</text>
<text text-anchor="start" x="574" y="-229.2" font-family="DejaVu Sans" font-size="11.00">measurement_window</text>
<text text-anchor="start" x="574" y="-207.2" font-family="DejaVu Sans" font-size="11.00">method_description</text>
<text text-anchor="start" x="574" y="-185.2" font-family="DejaVu Sans" font-size="11.00">metric_name</text>
<text text-anchor="start" x="574" y="-163.2" font-family="DejaVu Sans" font-size="11.00">outcome_id</text>
<text text-anchor="start" x="574" y="-141.2" font-family="DejaVu Sans" font-size="11.00">publisher</text>
<text text-anchor="start" x="574" y="-119.2" font-family="DejaVu Sans" font-size="11.00">reported_quote</text>
<text text-anchor="start" x="574" y="-97.2" font-family="DejaVu Sans" font-size="11.00">reported_value</text>
<text text-anchor="start" x="574" y="-75.2" font-family="DejaVu Sans" font-size="11.00">sample_size</text>
<text text-anchor="start" x="574" y="-53.2" font-family="DejaVu Sans" font-size="11.00">source_url</text>
<text text-anchor="start" x="574" y="-31.2" font-family="DejaVu Sans" font-size="11.00">transfer_to_target_allowed</text>
<text text-anchor="start" x="574" y="-9.2" font-family="DejaVu Sans" font-size="11.00">unit</text>
<polygon fill="none" stroke="black" points="568,0 568,-374 736,-374 736,0 568,0"/>
</g>
<!-- CapabilityProfile&#45;&gt;CaseStudyOutcomeValue -->
<!-- ChangeRecord -->
<g id="node5" class="node">
<title>ChangeRecord</title>
<polygon fill="#e6edf3" stroke="transparent" points="780.5,-296 780.5,-318 919.5,-318 919.5,-296 780.5,-296"/>
<text text-anchor="start" x="805.5" y="-305.2" font-family="DejaVu Sans" font-weight="bold" font-size="11.00">ChangeRecord</text>
<text text-anchor="start" x="785.5" y="-283.8" font-family="DejaVu Sans" font-size="9.00">REFERENCE CONTRACT v4.2</text>
<text text-anchor="start" x="785.5" y="-262.2" font-family="DejaVu Sans" font-size="11.00">actor_id</text>
<text text-anchor="start" x="785.5" y="-240.2" font-family="DejaVu Sans" font-size="11.00">change_id</text>
<text text-anchor="start" x="785.5" y="-218.2" font-family="DejaVu Sans" font-size="11.00">effective_at</text>
<text text-anchor="start" x="785.5" y="-196.2" font-family="DejaVu Sans" font-size="11.00">kind</text>
<text text-anchor="start" x="785.5" y="-174.2" font-family="DejaVu Sans" font-size="11.00">reason</text>
<text text-anchor="start" x="785.5" y="-152.2" font-family="DejaVu Sans" font-size="11.00">recorded_at</text>
<text text-anchor="start" x="785.5" y="-130.2" font-family="DejaVu Sans" font-size="11.00">replacement_id</text>
<text text-anchor="start" x="785.5" y="-108.2" font-family="DejaVu Sans" font-size="11.00">target_id</text>
<text text-anchor="start" x="785.5" y="-86.2" font-family="DejaVu Sans" font-size="11.00">target_type</text>
<text text-anchor="start" x="785.5" y="-64.2" font-family="DejaVu Sans" font-size="11.00">tenant_id</text>
<polygon fill="none" stroke="black" points="779,-55 779,-319 920,-319 920,-55 779,-55"/>
</g>
<!-- CaseStudyOutcomeValue&#45;&gt;ChangeRecord -->
<!-- ClaimResolution -->
<g id="node6" class="node">
<title>ClaimResolution</title>
<polygon fill="#e6edf3" stroke="transparent" points="964.5,-329 964.5,-351 1103.5,-351 1103.5,-329 964.5,-329"/>
<text text-anchor="start" x="984" y="-338.2" font-family="DejaVu Sans" font-weight="bold" font-size="11.00">ClaimResolution</text>
<text text-anchor="start" x="969.5" y="-316.8" font-family="DejaVu Sans" font-size="9.00">REFERENCE CONTRACT v4.2</text>
<text text-anchor="start" x="969.5" y="-295.2" font-family="DejaVu Sans" font-size="11.00">accepted_fact_ids</text>
<text text-anchor="start" x="969.5" y="-273.2" font-family="DejaVu Sans" font-size="11.00">as_of</text>
<text text-anchor="start" x="969.5" y="-251.2" font-family="DejaVu Sans" font-size="11.00">observation_ids</text>
<text text-anchor="start" x="969.5" y="-229.2" font-family="DejaVu Sans" font-size="11.00">policy_version</text>
<text text-anchor="start" x="969.5" y="-207.2" font-family="DejaVu Sans" font-size="11.00">predicate_id</text>
<text text-anchor="start" x="969.5" y="-185.2" font-family="DejaVu Sans" font-size="11.00">resolution_id</text>
<text text-anchor="start" x="969.5" y="-163.2" font-family="DejaVu Sans" font-size="11.00">resolved_at</text>
<text text-anchor="start" x="969.5" y="-141.2" font-family="DejaVu Sans" font-size="11.00">run_id</text>
<text text-anchor="start" x="969.5" y="-119.2" font-family="DejaVu Sans" font-size="11.00">scope_id</text>
<text text-anchor="start" x="969.5" y="-97.2" font-family="DejaVu Sans" font-size="11.00">status</text>
<text text-anchor="start" x="969.5" y="-75.2" font-family="DejaVu Sans" font-size="11.00">subject_id</text>
<text text-anchor="start" x="969.5" y="-53.2" font-family="DejaVu Sans" font-size="11.00">target</text>
<text text-anchor="start" x="969.5" y="-31.2" font-family="DejaVu Sans" font-size="11.00">tenant_id</text>
<polygon fill="none" stroke="black" points="963,-22 963,-352 1104,-352 1104,-22 963,-22"/>
</g>
<!-- ChangeRecord&#45;&gt;ClaimResolution -->
</g>
</svg>
