<?xml version="1.0" encoding="UTF-8" standalone="no"?>
<!DOCTYPE svg PUBLIC "-//W3C//DTD SVG 1.1//EN"
 "http://www.w3.org/Graphics/SVG/1.1/DTD/svg11.dtd">
<!-- Generated by graphviz version 2.42.4 (0)
 -->
<!-- Title: G Pages: 1 -->
<svg width="1169pt" height="404pt"
 viewBox="0.00 0.00 1169.00 404.00" xmlns="http://www.w3.org/2000/svg" xmlns:xlink="http://www.w3.org/1999/xlink">
<g id="graph0" class="graph" transform="scale(1 1) rotate(0) translate(4 400)">
<title>G</title>
<polygon fill="white" stroke="transparent" points="-4,4 -4,-400 1165,-400 1165,4 -4,4"/>
<!-- DataAccessPolicy -->
<g id="node1" class="node">
<title>DataAccessPolicy</title>
<polygon fill="#e6edf3" stroke="transparent" points="1.5,-373 1.5,-395 188.5,-395 188.5,-373 1.5,-373"/>
<text text-anchor="start" x="40" y="-382.2" font-family="DejaVu Sans" font-weight="bold" font-size="11.00">DataAccessPolicy</text>
<text text-anchor="start" x="30.5" y="-360.8" font-family="DejaVu Sans" font-size="9.00">REFERENCE CONTRACT v4.2</text>
<text text-anchor="start" x="6.5" y="-339.2" font-family="DejaVu Sans" font-size="11.00">allow_personal_data</text>
<text text-anchor="start" x="6.5" y="-317.2" font-family="DejaVu Sans" font-size="11.00">allow_sensitive_data</text>
<text text-anchor="start" x="6.5" y="-295.2" font-family="DejaVu Sans" font-size="11.00">approval_ref</text>
<text text-anchor="start" x="6.5" y="-273.2" font-family="DejaVu Sans" font-size="11.00">attribution_text</text>
<text text-anchor="start" x="6.5" y="-251.2" font-family="DejaVu Sans" font-size="11.00">deletion_cascades</text>
<text text-anchor="start" x="6.5" y="-229.2" font-family="DejaVu Sans" font-size="11.00">fixture_only</text>
<text text-anchor="start" x="6.5" y="-207.2" font-family="DejaVu Sans" font-size="11.00">max_derived_retention_seconds</text>
<text text-anchor="start" x="6.5" y="-185.2" font-family="DejaVu Sans" font-size="11.00">max_raw_retention_seconds</text>
<text text-anchor="start" x="6.5" y="-163.2" font-family="DejaVu Sans" font-size="11.00">policy_id</text>
<text text-anchor="start" x="6.5" y="-141.2" font-family="DejaVu Sans" font-size="11.00">purposes</text>
<text text-anchor="start" x="6.5" y="-119.2" font-family="DejaVu Sans" font-size="11.00">review_status</text>
<text text-anchor="start" x="6.5" y="-97.2" font-family="DejaVu Sans" font-size="11.00">reviewed_at</text>
<text text-anchor="start" x="6.5" y="-75.2" font-family="DejaVu Sans" font-size="11.00">tenant_ids</text>
<text text-anchor="start" x="6.5" y="-53.2" font-family="DejaVu Sans" font-size="11.00">terms_ref</text>
<text text-anchor="start" x="6.5" y="-31.2" font-family="DejaVu Sans" font-size="11.00">valid_until</text>
<text text-anchor="start" x="6.5" y="-9.2" font-family="DejaVu Sans" font-size="11.00">version</text>
<polygon fill="none" stroke="black" points="0,0 0,-396 189,-396 189,0 0,0"/>
</g>
<!-- DestinationDefinition -->
<g id="node2" class="node">
<title>DestinationDefinition</title>
<polygon fill="#e6edf3" stroke="transparent" points="233,-274 233,-296 375,-296 375,-274 233,-274"/>
<text text-anchor="start" x="238" y="-283.2" font-family="DejaVu Sans" font-weight="bold" font-size="11.00">DestinationDefinition</text>
<text text-anchor="start" x="239.5" y="-261.8" font-family="DejaVu Sans" font-size="9.00">REFERENCE CONTRACT v4.2</text>
<text text-anchor="start" x="238" y="-240.2" font-family="DejaVu Sans" font-size="11.00">automatic_sending</text>
<text text-anchor="start" x="238" y="-218.2" font-family="DejaVu Sans" font-size="11.00">destination_id</text>
<text text-anchor="start" x="238" y="-196.2" font-family="DejaVu Sans" font-size="11.00">enabled</text>
<text text-anchor="start" x="238" y="-174.2" font-family="DejaVu Sans" font-size="11.00">fixture_only</text>
<text text-anchor="start" x="238" y="-152.2" font-family="DejaVu Sans" font-size="11.00">kind</text>
<text text-anchor="start" x="238" y="-130.2" font-family="DejaVu Sans" font-size="11.00">mapping_version</text>
<text text-anchor="start" x="238" y="-108.2" font-family="DejaVu Sans" font-size="11.00">tenant_id</text>
<polygon fill="none" stroke="black" points="232,-99 232,-297 376,-297 376,-99 232,-99"/>
</g>
<!-- DataAccessPolicy&#45;&gt;DestinationDefinition -->
<!-- DiscussionRecordValue -->
<g id="node3" class="node">
<title>DiscussionRecordValue</title>
<polygon fill="#e6edf3" stroke="transparent" points="420,-274 420,-296 574,-296 574,-274 420,-274"/>
<text text-anchor="start" x="425" y="-283.2" font-family="DejaVu Sans" font-weight="bold" font-size="11.00">DiscussionRecordValue</text>
<text text-anchor="start" x="432.5" y="-261.8" font-family="DejaVu Sans" font-size="9.00">REFERENCE CONTRACT v4.2</text>
<text text-anchor="start" x="425" y="-240.2" font-family="DejaVu Sans" font-size="11.00">community</text>
<text text-anchor="start" x="425" y="-218.2" font-family="DejaVu Sans" font-size="11.00">language</text>
<text text-anchor="start" x="425" y="-196.2" font-family="DejaVu Sans" font-size="11.00">post_key</text>
<text text-anchor="start" x="425" y="-174.2" font-family="DejaVu Sans" font-size="11.00">published_at</text>
<text text-anchor="start" x="425" y="-152.2" font-family="DejaVu Sans" font-size="11.00">role</text>
<text text-anchor="start" x="425" y="-130.2" font-family="DejaVu Sans" font-size="11.00">text</text>
<text text-anchor="start" x="425" y="-108.2" font-family="DejaVu Sans" font-size="11.00">thread_key</text>
<polygon fill="none" stroke="black" points="419,-99 419,-297 575,-297 575,-99 419,-99"/>
</g>
<!-- DestinationDefinition&#45;&gt;DiscussionRecordValue -->
<!-- EconomicHypothesisValue -->
<g id="node4" class="node">
<title>EconomicHypothesisValue</title>
<polygon fill="#e6edf3" stroke="transparent" points="619.5,-241 619.5,-263 792.5,-263 792.5,-241 619.5,-241"/>
<text text-anchor="start" x="624.5" y="-250.2" font-family="DejaVu Sans" font-weight="bold" font-size="11.00">EconomicHypothesisValue</text>
<text text-anchor="start" x="641.5" y="-228.8" font-family="DejaVu Sans" font-size="9.00">REFERENCE CONTRACT v4.2</text>
<text text-anchor="start" x="624.5" y="-207.2" font-family="DejaVu Sans" font-size="11.00">assumptions</text>
<text text-anchor="start" x="624.5" y="-185.2" font-family="DejaVu Sans" font-size="11.00">currency</text>
<text text-anchor="start" x="624.5" y="-163.2" font-family="DejaVu Sans" font-size="11.00">estimated_amount_minor</text>
<text text-anchor="start" x="624.5" y="-141.2" font-family="DejaVu Sans" font-size="11.00">limitations</text>
<polygon fill="none" stroke="black" points="618,-132 618,-264 793,-264 793,-132 618,-132"/>
</g>
<!-- DiscussionRecordValue&#45;&gt;EconomicHypothesisValue -->
<!-- EvidenceLocator -->
<g id="node5" class="node">
<title>EvidenceLocator</title>
<polygon fill="#e6edf3" stroke="transparent" points="837.5,-274 837.5,-296 976.5,-296 976.5,-274 837.5,-274"/>
<text text-anchor="start" x="855.5" y="-283.2" font-family="DejaVu Sans" font-weight="bold" font-size="11.00">EvidenceLocator</text>
<text text-anchor="start" x="842.5" y="-261.8" font-family="DejaVu Sans" font-size="9.00">REFERENCE CONTRACT v4.2</text>
<text text-anchor="start" x="842.5" y="-240.2" font-family="DejaVu Sans" font-size="11.00">artifact_id</text>
<text text-anchor="start" x="842.5" y="-218.2" font-family="DejaVu Sans" font-size="11.00">end</text>
<text text-anchor="start" x="842.5" y="-196.2" font-family="DejaVu Sans" font-size="11.00">kind</text>
<text text-anchor="start" x="842.5" y="-174.2" font-family="DejaVu Sans" font-size="11.00">locator_id</text>
<text text-anchor="start" x="842.5" y="-152.2" font-family="DejaVu Sans" font-size="11.00">pointer</text>
<text text-anchor="start" x="842.5" y="-130.2" font-family="DejaVu Sans" font-size="11.00">quote</text>
<text text-anchor="start" x="842.5" y="-108.2" font-family="DejaVu Sans" font-size="11.00">start</text>
<polygon fill="none" stroke="black" points="836,-99 836,-297 977,-297 977,-99 836,-99"/>
</g>
<!-- EconomicHypothesisValue&#45;&gt;EvidenceLocator -->
<!-- EvidenceSet -->
<g id="node6" class="node">
<title>EvidenceSet</title>
<polygon fill="#e6edf3" stroke="transparent" points="1021.5,-296 1021.5,-318 1160.5,-318 1160.5,-296 1021.5,-296"/>
<text text-anchor="start" x="1052.5" y="-305.2" font-family="DejaVu Sans" font-weight="bold" font-size="11.00">EvidenceSet</text>
<text text-anchor="start" x="1026.5" y="-283.8" font-family="DejaVu Sans" font-size="9.00">REFERENCE CONTRACT v4.2</text>
<text text-anchor="start" x="1026.5" y="-262.2" font-family="DejaVu Sans" font-size="11.00">attempt_id</text>
<text text-anchor="start" x="1026.5" y="-240.2" font-family="DejaVu Sans" font-size="11.00">coverage_id</text>
<text text-anchor="start" x="1026.5" y="-218.2" font-family="DejaVu Sans" font-size="11.00">directness</text>
<text text-anchor="start" x="1026.5" y="-196.2" font-family="DejaVu Sans" font-size="11.00">evidence_id</text>
<text text-anchor="start" x="1026.5" y="-174.2" font-family="DejaVu Sans" font-size="11.00">execution_id</text>
<text text-anchor="start" x="1026.5" y="-152.2" font-family="DejaVu Sans" font-size="11.00">input_fact_ids</text>
<text text-anchor="start" x="1026.5" y="-130.2" font-family="DejaVu Sans" font-size="11.00">locator_ids</text>
<text text-anchor="start" x="1026.5" y="-108.2" font-family="DejaVu Sans" font-size="11.00">sample_ids</text>
<text text-anchor="start" x="1026.5" y="-86.2" font-family="DejaVu Sans" font-size="11.00">tenant_id</text>
<polygon fill="none" stroke="black" points="1020,-77 1020,-319 1161,-319 1161,-77 1020,-77"/>
</g>
<!-- EvidenceLocator&#45;&gt;EvidenceSet -->
</g>
</svg>
