<?xml version="1.0" encoding="UTF-8" standalone="no"?>
<!DOCTYPE svg PUBLIC "-//W3C//DTD SVG 1.1//EN"
 "http://www.w3.org/Graphics/SVG/1.1/DTD/svg11.dtd">
<!-- Generated by graphviz version 2.42.4 (0)
 -->
<!-- Title: G Pages: 1 -->
<svg width="1110pt" height="338pt"
 viewBox="0.00 0.00 1110.00 338.00" xmlns="http://www.w3.org/2000/svg" xmlns:xlink="http://www.w3.org/1999/xlink">
<g id="graph0" class="graph" transform="scale(1 1) rotate(0) translate(4 334)">
<title>G</title>
<polygon fill="white" stroke="transparent" points="-4,4 -4,-334 1106,-334 1106,4 -4,4"/>
<!-- TimeWindow -->
<g id="node1" class="node">
<title>TimeWindow</title>
<polygon fill="#e6edf3" stroke="transparent" points="1.5,-186 1.5,-208 140.5,-208 140.5,-186 1.5,-186"/>
<text text-anchor="start" x="31.5" y="-195.2" font-family="DejaVu Sans" font-weight="bold" font-size="11.00">TimeWindow</text>
<text text-anchor="start" x="6.5" y="-173.8" font-family="DejaVu Sans" font-size="9.00">REFERENCE CONTRACT v4.2</text>
<text text-anchor="start" x="6.5" y="-152.2" font-family="DejaVu Sans" font-size="11.00">end</text>
<text text-anchor="start" x="6.5" y="-130.2" font-family="DejaVu Sans" font-size="11.00">start</text>
<polygon fill="none" stroke="black" points="0,-121 0,-209 141,-209 141,-121 0,-121"/>
</g>
<!-- UseGateDecision -->
<g id="node2" class="node">
<title>UseGateDecision</title>
<polygon fill="#e6edf3" stroke="transparent" points="185.5,-307 185.5,-329 324.5,-329 324.5,-307 185.5,-307"/>
<text text-anchor="start" x="202" y="-316.2" font-family="DejaVu Sans" font-weight="bold" font-size="11.00">UseGateDecision</text>
<text text-anchor="start" x="190.5" y="-294.8" font-family="DejaVu Sans" font-size="9.00">REFERENCE CONTRACT v4.2</text>
<text text-anchor="start" x="190.5" y="-273.2" font-family="DejaVu Sans" font-size="11.00">actor_id</text>
<text text-anchor="start" x="190.5" y="-251.2" font-family="DejaVu Sans" font-size="11.00">decision</text>
<text text-anchor="start" x="190.5" y="-229.2" font-family="DejaVu Sans" font-size="11.00">destination_id</text>
<text text-anchor="start" x="190.5" y="-207.2" font-family="DejaVu Sans" font-size="11.00">evaluated_at</text>
<text text-anchor="start" x="190.5" y="-185.2" font-family="DejaVu Sans" font-size="11.00">gate_id</text>
<text text-anchor="start" x="190.5" y="-163.2" font-family="DejaVu Sans" font-size="11.00">package</text>
<text text-anchor="start" x="190.5" y="-141.2" font-family="DejaVu Sans" font-size="11.00">purpose</text>
<text text-anchor="start" x="190.5" y="-119.2" font-family="DejaVu Sans" font-size="11.00">reasons</text>
<text text-anchor="start" x="190.5" y="-97.2" font-family="DejaVu Sans" font-size="11.00">recipient_key</text>
<text text-anchor="start" x="190.5" y="-75.2" font-family="DejaVu Sans" font-size="11.00">review_id</text>
<text text-anchor="start" x="190.5" y="-53.2" font-family="DejaVu Sans" font-size="11.00">tenant_id</text>
<text text-anchor="start" x="190.5" y="-31.2" font-family="DejaVu Sans" font-size="11.00">valid_until</text>
<text text-anchor="start" x="190.5" y="-9.2" font-family="DejaVu Sans" font-size="11.00">version_vector</text>
<polygon fill="none" stroke="black" points="184,0 184,-330 325,-330 325,0 184,0"/>
</g>
<!-- TimeWindow&#45;&gt;UseGateDecision -->
<!-- UseRestriction -->
<g id="node3" class="node">
<title>UseRestriction</title>
<polygon fill="#e6edf3" stroke="transparent" points="369.5,-274 369.5,-296 508.5,-296 508.5,-274 369.5,-274"/>
<text text-anchor="start" x="393.5" y="-283.2" font-family="DejaVu Sans" font-weight="bold" font-size="11.00">UseRestriction</text>
<text text-anchor="start" x="374.5" y="-261.8" font-family="DejaVu Sans" font-size="9.00">REFERENCE CONTRACT v4.2</text>
<text text-anchor="start" x="374.5" y="-240.2" font-family="DejaVu Sans" font-size="11.00">actor_id</text>
<text text-anchor="start" x="374.5" y="-218.2" font-family="DejaVu Sans" font-size="11.00">effective_at</text>
<text text-anchor="start" x="374.5" y="-196.2" font-family="DejaVu Sans" font-size="11.00">kind</text>
<text text-anchor="start" x="374.5" y="-174.2" font-family="DejaVu Sans" font-size="11.00">reason</text>
<text text-anchor="start" x="374.5" y="-152.2" font-family="DejaVu Sans" font-size="11.00">recipient_key</text>
<text text-anchor="start" x="374.5" y="-130.2" font-family="DejaVu Sans" font-size="11.00">released_at</text>
<text text-anchor="start" x="374.5" y="-108.2" font-family="DejaVu Sans" font-size="11.00">released_by</text>
<text text-anchor="start" x="374.5" y="-86.2" font-family="DejaVu Sans" font-size="11.00">restriction_id</text>
<text text-anchor="start" x="374.5" y="-64.2" font-family="DejaVu Sans" font-size="11.00">subject_id</text>
<text text-anchor="start" x="374.5" y="-42.2" font-family="DejaVu Sans" font-size="11.00">tenant_id</text>
<polygon fill="none" stroke="black" points="368,-33 368,-297 509,-297 509,-33 368,-33"/>
</g>
<!-- UseGateDecision&#45;&gt;UseRestriction -->
<!-- ProgramDefinition -->
<g id="node4" class="node">
<title>ProgramDefinition</title>
<polygon fill="#e6edf3" stroke="transparent" points="553,-285 553,-307 699,-307 699,-285 553,-285"/>
<text text-anchor="start" x="569.5" y="-294.2" font-family="DejaVu Sans" font-weight="bold" font-size="11.00">ProgramDefinition</text>
<text text-anchor="start" x="558" y="-272.8" font-family="DejaVu Sans" font-size="9.00">PROPOSED PRODUCT RECORD</text>
<text text-anchor="start" x="558" y="-251.2" font-family="DejaVu Sans" font-size="11.00">program_id</text>
<text text-anchor="start" x="558" y="-229.2" font-family="DejaVu Sans" font-size="11.00">tenant_id</text>
<text text-anchor="start" x="558" y="-207.2" font-family="DejaVu Sans" font-size="11.00">revision</text>
<text text-anchor="start" x="558" y="-185.2" font-family="DejaVu Sans" font-size="11.00">objectives</text>
<text text-anchor="start" x="558" y="-163.2" font-family="DejaVu Sans" font-size="11.00">audience_ref</text>
<text text-anchor="start" x="558" y="-141.2" font-family="DejaVu Sans" font-size="11.00">offer_refs</text>
<text text-anchor="start" x="558" y="-119.2" font-family="DejaVu Sans" font-size="11.00">capability_profile_ref</text>
<text text-anchor="start" x="558" y="-97.2" font-family="DejaVu Sans" font-size="11.00">acquisition_limits</text>
<text text-anchor="start" x="558" y="-75.2" font-family="DejaVu Sans" font-size="11.00">outreach_policy_ref</text>
<text text-anchor="start" x="558" y="-53.2" font-family="DejaVu Sans" font-size="11.00">owner</text>
<text text-anchor="start" x="558" y="-31.2" font-family="DejaVu Sans" font-size="11.00">approval_state</text>
<polygon fill="none" stroke="black" points="552,-22 552,-308 700,-308 700,-22 552,-22"/>
</g>
<!-- UseRestriction&#45;&gt;ProgramDefinition -->
<!-- AudienceDefinition -->
<g id="node5" class="node">
<title>AudienceDefinition</title>
<polygon fill="#e6edf3" stroke="transparent" points="744,-241 744,-263 894,-263 894,-241 744,-241"/>
<text text-anchor="start" x="760.5" y="-250.2" font-family="DejaVu Sans" font-weight="bold" font-size="11.00">AudienceDefinition</text>
<text text-anchor="start" x="751" y="-228.8" font-family="DejaVu Sans" font-size="9.00">PROPOSED PRODUCT RECORD</text>
<text text-anchor="start" x="749" y="-207.2" font-family="DejaVu Sans" font-size="11.00">audience_id</text>
<text text-anchor="start" x="749" y="-185.2" font-family="DejaVu Sans" font-size="11.00">revision</text>
<text text-anchor="start" x="749" y="-163.2" font-family="DejaVu Sans" font-size="11.00">account_filters</text>
<text text-anchor="start" x="749" y="-141.2" font-family="DejaVu Sans" font-size="11.00">permitted_geographies</text>
<text text-anchor="start" x="749" y="-119.2" font-family="DejaVu Sans" font-size="11.00">excluded_segments</text>
<text text-anchor="start" x="749" y="-97.2" font-family="DejaVu Sans" font-size="11.00">membership_as_of_policy</text>
<text text-anchor="start" x="749" y="-75.2" font-family="DejaVu Sans" font-size="11.00">selection_reason_codes</text>
<polygon fill="none" stroke="black" points="743,-66 743,-264 895,-264 895,-66 743,-66"/>
</g>
<!-- ProgramDefinition&#45;&gt;AudienceDefinition -->
<!-- OfferDefinition -->
<g id="node6" class="node">
<title>OfferDefinition</title>
<polygon fill="#e6edf3" stroke="transparent" points="939,-252 939,-274 1101,-274 1101,-252 939,-252"/>
<text text-anchor="start" x="974.5" y="-261.2" font-family="DejaVu Sans" font-weight="bold" font-size="11.00">OfferDefinition</text>
<text text-anchor="start" x="952" y="-239.8" font-family="DejaVu Sans" font-size="9.00">PROPOSED PRODUCT RECORD</text>
<text text-anchor="start" x="944" y="-218.2" font-family="DejaVu Sans" font-size="11.00">offer_id</text>
<text text-anchor="start" x="944" y="-196.2" font-family="DejaVu Sans" font-size="11.00">revision</text>
<text text-anchor="start" x="944" y="-174.2" font-family="DejaVu Sans" font-size="11.00">service_line</text>
<text text-anchor="start" x="944" y="-152.2" font-family="DejaVu Sans" font-size="11.00">supported_problem_classes</text>
<text text-anchor="start" x="944" y="-130.2" font-family="DejaVu Sans" font-size="11.00">prerequisites</text>
<text text-anchor="start" x="944" y="-108.2" font-family="DejaVu Sans" font-size="11.00">allowed_template_refs</text>
<text text-anchor="start" x="944" y="-86.2" font-family="DejaVu Sans" font-size="11.00">persona_rules</text>
<text text-anchor="start" x="944" y="-64.2" font-family="DejaVu Sans" font-size="11.00">restrictions</text>
<polygon fill="none" stroke="black" points="938,-55 938,-275 1102,-275 1102,-55 938,-55"/>
</g>
<!-- AudienceDefinition&#45;&gt;OfferDefinition -->
</g>
</svg>
