<?xml version="1.0" encoding="UTF-8" standalone="no"?>
<!DOCTYPE svg PUBLIC "-//W3C//DTD SVG 1.1//EN"
 "http://www.w3.org/Graphics/SVG/1.1/DTD/svg11.dtd">
<!-- Generated by graphviz version 2.42.4 (0)
 -->
<!-- Title: G Pages: 1 -->
<svg width="1097pt" height="316pt"
 viewBox="0.00 0.00 1097.00 316.00" xmlns="http://www.w3.org/2000/svg" xmlns:xlink="http://www.w3.org/1999/xlink">
<g id="graph0" class="graph" transform="scale(1 1) rotate(0) translate(4 312)">
<title>G</title>
<polygon fill="white" stroke="transparent" points="-4,4 -4,-312 1093,-312 1093,4 -4,4"/>
<!-- SignalDefinition -->
<g id="node1" class="node">
<title>SignalDefinition</title>
<polygon fill="#e6edf3" stroke="transparent" points="1.5,-230 1.5,-252 140.5,-252 140.5,-230 1.5,-230"/>
<text text-anchor="start" x="21.5" y="-239.2" font-family="DejaVu Sans" font-weight="bold" font-size="11.00">SignalDefinition</text>
<text text-anchor="start" x="6.5" y="-217.8" font-family="DejaVu Sans" font-size="9.00">REFERENCE CONTRACT v4.2</text>
<text text-anchor="start" x="6.5" y="-196.2" font-family="DejaVu Sans" font-size="11.00">context_allowed</text>
<text text-anchor="start" x="6.5" y="-174.2" font-family="DejaVu Sans" font-size="11.00">description</text>
<text text-anchor="start" x="6.5" y="-152.2" font-family="DejaVu Sans" font-size="11.00">function_id</text>
<text text-anchor="start" x="6.5" y="-130.2" font-family="DejaVu Sans" font-size="11.00">required_facts</text>
<text text-anchor="start" x="6.5" y="-108.2" font-family="DejaVu Sans" font-size="11.00">signal_type_id</text>
<text text-anchor="start" x="6.5" y="-86.2" font-family="DejaVu Sans" font-size="11.00">status</text>
<text text-anchor="start" x="6.5" y="-64.2" font-family="DejaVu Sans" font-size="11.00">version</text>
<polygon fill="none" stroke="black" points="0,-55 0,-253 141,-253 141,-55 0,-55"/>
</g>
<!-- SignalEvaluation -->
<g id="node2" class="node">
<title>SignalEvaluation</title>
<polygon fill="#e6edf3" stroke="transparent" points="185.5,-263 185.5,-285 324.5,-285 324.5,-263 185.5,-263"/>
<text text-anchor="start" x="203" y="-272.2" font-family="DejaVu Sans" font-weight="bold" font-size="11.00">SignalEvaluation</text>
<text text-anchor="start" x="190.5" y="-250.8" font-family="DejaVu Sans" font-size="9.00">REFERENCE CONTRACT v4.2</text>
<text text-anchor="start" x="190.5" y="-229.2" font-family="DejaVu Sans" font-size="11.00">context_ids</text>
<text text-anchor="start" x="190.5" y="-207.2" font-family="DejaVu Sans" font-size="11.00">evaluated_at</text>
<text text-anchor="start" x="190.5" y="-185.2" font-family="DejaVu Sans" font-size="11.00">input_fact_ids</text>
<text text-anchor="start" x="190.5" y="-163.2" font-family="DejaVu Sans" font-size="11.00">reason</text>
<text text-anchor="start" x="190.5" y="-141.2" font-family="DejaVu Sans" font-size="11.00">run_id</text>
<text text-anchor="start" x="190.5" y="-119.2" font-family="DejaVu Sans" font-size="11.00">signal_id</text>
<text text-anchor="start" x="190.5" y="-97.2" font-family="DejaVu Sans" font-size="11.00">signal_type_id</text>
<text text-anchor="start" x="190.5" y="-75.2" font-family="DejaVu Sans" font-size="11.00">status</text>
<text text-anchor="start" x="190.5" y="-53.2" font-family="DejaVu Sans" font-size="11.00">subject_id</text>
<text text-anchor="start" x="190.5" y="-31.2" font-family="DejaVu Sans" font-size="11.00">tenant_id</text>
<polygon fill="none" stroke="black" points="184,-22 184,-286 325,-286 325,-22 184,-22"/>
</g>
<!-- SignalDefinition&#45;&gt;SignalEvaluation -->
<!-- SourceDefinition -->
<g id="node3" class="node">
<title>SourceDefinition</title>
<polygon fill="#e6edf3" stroke="transparent" points="369.5,-285 369.5,-307 508.5,-307 508.5,-285 369.5,-285"/>
<text text-anchor="start" x="387.5" y="-294.2" font-family="DejaVu Sans" font-weight="bold" font-size="11.00">SourceDefinition</text>
<text text-anchor="start" x="374.5" y="-272.8" font-family="DejaVu Sans" font-size="9.00">REFERENCE CONTRACT v4.2</text>
<text text-anchor="start" x="374.5" y="-251.2" font-family="DejaVu Sans" font-size="11.00">acquisition_method</text>
<text text-anchor="start" x="374.5" y="-229.2" font-family="DejaVu Sans" font-size="11.00">adapter_status</text>
<text text-anchor="start" x="374.5" y="-207.2" font-family="DejaVu Sans" font-size="11.00">allowed_natures</text>
<text text-anchor="start" x="374.5" y="-185.2" font-family="DejaVu Sans" font-size="11.00">authority</text>
<text text-anchor="start" x="374.5" y="-163.2" font-family="DejaVu Sans" font-size="11.00">emits</text>
<text text-anchor="start" x="374.5" y="-141.2" font-family="DejaVu Sans" font-size="11.00">fixture_only</text>
<text text-anchor="start" x="374.5" y="-119.2" font-family="DejaVu Sans" font-size="11.00">freshness_seconds</text>
<text text-anchor="start" x="374.5" y="-97.2" font-family="DejaVu Sans" font-size="11.00">policy_id</text>
<text text-anchor="start" x="374.5" y="-75.2" font-family="DejaVu Sans" font-size="11.00">provider</text>
<text text-anchor="start" x="374.5" y="-53.2" font-family="DejaVu Sans" font-size="11.00">source_id</text>
<text text-anchor="start" x="374.5" y="-31.2" font-family="DejaVu Sans" font-size="11.00">upstream_namespace</text>
<text text-anchor="start" x="374.5" y="-9.2" font-family="DejaVu Sans" font-size="11.00">version</text>
<polygon fill="none" stroke="black" points="368,0 368,-308 509,-308 509,0 368,0"/>
</g>
<!-- SignalEvaluation&#45;&gt;SourceDefinition -->
<!-- Subject -->
<g id="node4" class="node">
<title>Subject</title>
<polygon fill="#e6edf3" stroke="transparent" points="553.5,-208 553.5,-230 692.5,-230 692.5,-208 553.5,-208"/>
<text text-anchor="start" x="599.5" y="-217.2" font-family="DejaVu Sans" font-weight="bold" font-size="11.00">Subject</text>
<text text-anchor="start" x="558.5" y="-195.8" font-family="DejaVu Sans" font-size="9.00">REFERENCE CONTRACT v4.2</text>
<text text-anchor="start" x="558.5" y="-174.2" font-family="DejaVu Sans" font-size="11.00">display_name</text>
<text text-anchor="start" x="558.5" y="-152.2" font-family="DejaVu Sans" font-size="11.00">external_ids</text>
<text text-anchor="start" x="558.5" y="-130.2" font-family="DejaVu Sans" font-size="11.00">kind</text>
<text text-anchor="start" x="558.5" y="-108.2" font-family="DejaVu Sans" font-size="11.00">subject_id</text>
<text text-anchor="start" x="558.5" y="-86.2" font-family="DejaVu Sans" font-size="11.00">tenant_id</text>
<polygon fill="none" stroke="black" points="552,-77 552,-231 693,-231 693,-77 552,-77"/>
</g>
<!-- SourceDefinition&#45;&gt;Subject -->
<!-- SubjectBinding -->
<g id="node5" class="node">
<title>SubjectBinding</title>
<polygon fill="#e6edf3" stroke="transparent" points="737.5,-263 737.5,-285 876.5,-285 876.5,-263 737.5,-263"/>
<text text-anchor="start" x="760.5" y="-272.2" font-family="DejaVu Sans" font-weight="bold" font-size="11.00">SubjectBinding</text>
<text text-anchor="start" x="742.5" y="-250.8" font-family="DejaVu Sans" font-size="9.00">REFERENCE CONTRACT v4.2</text>
<text text-anchor="start" x="742.5" y="-229.2" font-family="DejaVu Sans" font-size="11.00">artifact_ids</text>
<text text-anchor="start" x="742.5" y="-207.2" font-family="DejaVu Sans" font-size="11.00">binding_id</text>
<text text-anchor="start" x="742.5" y="-185.2" font-family="DejaVu Sans" font-size="11.00">decided_at</text>
<text text-anchor="start" x="742.5" y="-163.2" font-family="DejaVu Sans" font-size="11.00">evidence_locator_ids</text>
<text text-anchor="start" x="742.5" y="-141.2" font-family="DejaVu Sans" font-size="11.00">method</text>
<text text-anchor="start" x="742.5" y="-119.2" font-family="DejaVu Sans" font-size="11.00">role</text>
<text text-anchor="start" x="742.5" y="-97.2" font-family="DejaVu Sans" font-size="11.00">scope_id</text>
<text text-anchor="start" x="742.5" y="-75.2" font-family="DejaVu Sans" font-size="11.00">status</text>
<text text-anchor="start" x="742.5" y="-53.2" font-family="DejaVu Sans" font-size="11.00">subject_id</text>
<text text-anchor="start" x="742.5" y="-31.2" font-family="DejaVu Sans" font-size="11.00">tenant_id</text>
<polygon fill="none" stroke="black" points="736,-22 736,-286 877,-286 877,-22 736,-22"/>
</g>
<!-- Subject&#45;&gt;SubjectBinding -->
<!-- SurfaceObservationValue -->
<g id="node6" class="node">
<title>SurfaceObservationValue</title>
<polygon fill="#e6edf3" stroke="transparent" points="921.5,-175 921.5,-197 1088.5,-197 1088.5,-175 921.5,-175"/>
<text text-anchor="start" x="926.5" y="-184.2" font-family="DejaVu Sans" font-weight="bold" font-size="11.00">SurfaceObservationValue</text>
<text text-anchor="start" x="940.5" y="-162.8" font-family="DejaVu Sans" font-size="9.00">REFERENCE CONTRACT v4.2</text>
<text text-anchor="start" x="926.5" y="-141.2" font-family="DejaVu Sans" font-size="11.00">observed_value</text>
<text text-anchor="start" x="926.5" y="-119.2" font-family="DejaVu Sans" font-size="11.00">surface_key</text>
<polygon fill="none" stroke="black" points="920,-110 920,-198 1089,-198 1089,-110 920,-110"/>
</g>
<!-- SubjectBinding&#45;&gt;SurfaceObservationValue -->
</g>
</svg>
